<svg xmlns="http://www.w3.org/2000/svg" viewBox="0 0 170.03 97.21"><defs><style>.cls-1{fill:#fff;}.cls-1,.cls-2,.cls-3{stroke:#231f20;}.cls-1,.cls-2{stroke-miterlimit:10;}.cls-2,.cls-3{fill:none;}.cls-3{stroke-miterlimit:10;}</style></defs><g id="Layer_2" data-name="Layer 2"><g id="Layer_1-2" data-name="Layer 1"><g id="Layer_6" data-name="Layer 6"><path class="cls-1" d="M50.72,18.42c0,1.45,0,3.15,4.77,4.76,3,1,6.59.7,7.36,1.12,4.32,2.32-22.67,45.26-19.16,52.59,3.27,6.81,16.3,9.93,29,2C83,72.5,81.47,53.23,81.47,53.23s.46,11.53,7.14,20.37a14.55,14.55,0,0,0,3.3,3.5c6.56,4.75,18.08,3.3,22.3-2.83a11.36,11.36,0,0,0,1.84-5.81c1-17.22-22.53-34-20.72-41.67.39-1.64,6-4.69,7.87-6.61s1.71-6-.17-7.75c-1.21-1.13-4.14-2.63-11.13-1.6-8.87,1.31-7.88,3-8.53,3.78-1.53,1.75-1.38,4.76,3.82,18.85,2.58,7,5.69,14.91,5.69,14.91S86.63,24.9,80,25c-6.35.09-11,21.91-11,21.91s10.74-19.44,4.72-31.22C71.72,11.69,51,10,50.72,18.42Z"/><path class="cls-1" d="M5.63,62.57a10.37,10.37,0,0,1,1-.22C6,62.51,5.63,62.57,5.63,62.57Z"/><path class="cls-1" d="M61.69,59.11s-8.43.74-11.53-1.71a3,3,0,0,1-.48-.46c-2.83-3.14-.37-10.36-.37-10.36S46.44,51,41.93,52.74C38,54.22,26.72,51.56,31.34,43c3.23-6,13.93-2.61,13.93-2.61s-3.06-3.24-2.84-6.45c.1-1.39-1.73-1.47,7.53-8.6l3.8-2.85,2.81-2a29,29,0,0,1-3.63,1.63c-2.32.84-5.21,1.45-7,.28-3.85-2.56-2.88-13.8-2.88-13.8S38.62,14,35,13.74c-4.85-.34-9.32-11.16-9.32-11.16s.1,10.1-4,12.6c-4.52,2.7-14.32-4.24-14.92-4.66.32.29,3,2.75,6.49,6.65,2.69,3,3.15,4.1,2.88,5-.36,1.2-1.89,1.73-4.63,2.63-4.09,1.35-6.56,1.92-6.56,1.92a64.55,64.55,0,0,1,5.8,3.39c2.29,1.49,3.73,2.45,4.5,4.3a7,7,0,0,1,0,5.3c-2,4-8.5,5-8.5,5a10.53,10.53,0,0,1,5,1.31,8.51,8.51,0,0,1,4,8.65,7.28,7.28,0,0,1-1.43,3c-2.21,2.94-5.81,4.19-7.59,4.66,1.62-.28,4.78-.54,7.24,1,.16.1,2.77,1.79,2.89,4.35.07,1.5-.73,3.12-5,6.63a100.28,100.28,0,0,1-10,7.3s3.36-.17,10.44-.66a10.33,10.33,0,0,1,3.71.31,10.73,10.73,0,0,1,4.17,2.38,6.72,6.72,0,0,1,2.54,3.15c1.28,4,1.12,9.86,1.12,10.38,0-.72.52-10.87,5-13.44,1.48-.84,3.06-.81,4.93-.77.9,0,2.39.59,5.77,1.89a24.27,24.27,0,0,1,8.61,6c-.17-.35-3.26-6.83-2.26-11.11a4.45,4.45,0,0,1,.24-.81,6.74,6.74,0,0,1,3.29-3.5c4.1-1.77,9.65,1.39,9.92,1.54-.21-.21-3.62-3.62-3.77-7.44C55.39,64.35,61.69,59.11,61.69,59.11Zm-33-25.69c-1.68-.9-4.07-.07-5.34.5,1.31-.72,3.69-2.28,4-4.35A5.5,5.5,0,0,0,26,25.63c1.1,1,2.46,1.87,3.52,1.57,1.54-.47,2.34-3.32,2.55-4.12-.13.87-.53,4.25,1.13,6,1.44,1.49,4.07,1.51,4.2,1.51-.21,0-3.63.17-5.16,2.15-1.27,1.65-1,4.22-.91,4.75C31.16,36.93,30.45,34.36,28.69,33.42ZM37.43,69A3.94,3.94,0,0,0,36,71.83c-.12-1.08-.41-2-1-2.31s-1.54.21-2.42.88c.85-1,1.52-2.11,1.23-2.93s-1.14-1.1-2-1.35a2.69,2.69,0,0,0,2.15-.63c.81-1,.2-3.07,0-3.58.19.5,1,2.53,2.6,3.12,1.39.53,3.14-.24,4.1-.78-.88.6-2.27,1.71-2.2,2.75,0,.67.7,1.27,1.51,1.77A3.37,3.37,0,0,0,37.43,69Z"/><path class="cls-2" d="M37.37,30.56c-.21,0-3.63.17-5.16,2.15-1.27,1.65-1,4.22-.91,4.75-.14-.53-.85-3.1-2.61-4s-4.07-.07-5.34.5c1.31-.72,3.69-2.28,4-4.35A5.5,5.5,0,0,0,26,25.63c1.1,1,2.46,1.87,3.52,1.57,1.63-.5,2.43-3.65,2.57-4.24-.1.62-.64,4.28,1.11,6.09C34.61,30.54,37.24,30.56,37.37,30.56Z"/><path class="cls-2" d="M22.54,34.33a7.42,7.42,0,0,1,.79-.4C22.94,34.14,22.65,34.28,22.54,34.33Z"/><path class="cls-2" d="M26,25.63a18,18,0,0,1-2-2.12A13.54,13.54,0,0,1,26,25.63Z"/><path class="cls-2" d="M40,68.77a3.37,3.37,0,0,0-2.52.19A3.94,3.94,0,0,0,36,71.83c-.12-1.08-.41-2-1-2.31s-1.54.21-2.42.88c.85-1,1.52-2.11,1.23-2.93s-1.14-1.1-2-1.35a2.69,2.69,0,0,0,2.15-.63c.81-1,.2-3.07,0-3.58.19.5,1,2.53,2.6,3.12,1.39.53,3.14-.24,4.1-.78-.88.6-2.27,1.71-2.2,2.75C38.48,67.67,39.14,68.27,40,68.77Z"/><path class="cls-2" d="M32.55,70.41A22.6,22.6,0,0,1,30,72.88,23.1,23.1,0,0,1,32.55,70.41Z"/><path class="cls-2" d="M31.72,66.12a10.68,10.68,0,0,1-2.33-.38A12.23,12.23,0,0,1,31.72,66.12Z"/><path class="cls-2" d="M36,71.83a19.76,19.76,0,0,1,0,3.61A14.79,14.79,0,0,1,36,71.83Z"/><path class="cls-2" d="M41.33,63.83a4.05,4.05,0,0,1-.48.3C41.08,64,41.26,63.87,41.33,63.83Z"/><path class="cls-2" d="M43.18,70.12A15.74,15.74,0,0,1,40,68.77,12.16,12.16,0,0,1,43.18,70.12Z"/><path class="cls-1" d="M168.57,18.46C165.41,10.31,155.5,7.73,152.86,7c-12.25-3.15-22.66,3.08-25.41,4.73-15.4,9.2-18.57,26-19.07,29a53.37,53.37,0,0,0-.76,6.3,32.19,32.19,0,0,0,5,20,32.84,32.84,0,0,0,3,3.81c6.32,6.89,16.18,12.19,24.39,9.21,6.07-2.2,11.31-9,10.09-13.35-1.13-4.09-6.41-4-6.95-7.39-.83-5.14,11.52-7.63,19.84-19.24C164.94,37.49,172.08,27.53,168.57,18.46ZM146.75,41.41c-3.56,2.34-7.65,2.41-9.14.15s.2-6,3.76-8.33,7.66-2.41,9.14-.15S150.31,39.07,146.75,41.41Z"/><path class="cls-3" d="M146.75,41.41c-3.56,2.34-7.65,2.41-9.14.15s.2-6,3.76-8.33,7.66-2.41,9.14-.15S150.31,39.07,146.75,41.41Z"/></g></g></g></svg>