<svg xmlns="http://www.w3.org/2000/svg" viewBox="0 0 913.38 339.79"><defs><style>.cls-1{fill:#fff;}</style></defs><title>Asset 1</title><g id="Layer_2" data-name="Layer 2"><g id="Layer_1-2" data-name="Layer 1"><path class="cls-1" d="M651.79,251.15l-3.57-.18V224l-3.7-1.27c-.27-1-.54-2.09-.83-3.23l-2.78-.66c-.42-.92-.9-2-1.47-3.25l-7-.48v-3.55l7.43-.53c.17-1.16.3-2,.47-3.14l3.28-.18c.18,1.39.33,2.48.47,3.57l-3.61.35-.34,3.53,4,.2c-.07,1.08-.15,2.16-.24,3.59l7.84.55c.15-1.47.27-2.56.42-4.08h-8.07v-4.19l7.62.43c.19,1,.39,2.06.62,3.32l3.29.74.82,3.39,7.14.4v3.7H656v-3.69l-4,.22c.18,1.3.31,2.32.48,3.58l3.59-.17c.11,1.23.21,2.47.35,4.11h8v3.66l3.19.87c.35,1.07.63,1.95,1,3.18h7.53c-.22-1.39-.37-2.42-.58-3.76h-7l-1-3.63-3.18-.27c0-1-.09-2-.15-3.4l3.37-.58c.34,1.24.62,2.28,1,3.58l7.12.78c.36,1.13.66,2.1,1.08,3.4h14.86c.34-1,.68-2,1.18-3.54h11c.41-1.43.7-2.46,1.21-4.23h10.83c.21-1.69.34-2.69.5-4h7.21l1-3.64,7.35-.45,1-3.45,7.41-.63V195.85h-7.45c-.15,1.22-.27,2.23-.41,3.41l-3.66.72c-.13,2.51-.25,4.8-.39,7.57H708.87c-.47,1.44-.78,2.4-1.19,3.63H680.54c-.33-1.37-.57-2.36-.87-3.64l-7.21-.49c-.17-1.45-.3-2.55-.44-3.65h7.78c.37,1.5.58,2.4.89,3.65H700V199.7l-3.75-.8c.09-1.12.17-2.09.24-3l3.86-.84v-19.7h11.71c.21-1.63.34-2.61.47-3.65H723.7c2.34,5.17-1.93,11.68,4,16.69.43-2.14.63-3.12.92-4.55l11.56-.67v-6.7l-7.54-1.18-.88-3.14-3.15-.83c-.4-1.31-.72-2.35-.67-2.17l-8.82-4.21c.17-.37.33-.75.49-1.12l-3-.61-.86-3.27-3-.24c-.28,1.37-.5,2.43-.8,3.85H700.61c-.2,1.52-.35,2.67-.55,4.18h-12V155.45h-7.48c-.12-1.3-.22-2.33-.34-3.58h12.09v11.44h7.71c.27-1.39.48-2.46.69-3.59l3.18-.36V127.89l-7-.32c-.44-1.37-.79-2.49-1.28-4H684.92c-.46-1.47-.79-2.51-1.19-3.77l-2.89.3-.91,3.3h-7.34c-.29-1.18-.51-2.09-.81-3.3l-7.42-.82V84.08h-4.08c0,8.68,0,17.1,0,25.52.05,6.07.27,12.15.42,18.22l-4.43-.57V76l-7.58-.4c-.25-1.3-.45-2.38-.67-3.56h-7.53V99.44l3.66,1v54.51l4,1.32v19h7.41l.94-3.34,3.56-1.12c0-1.56,0-3,0-4.46l.6-38.52,3.39.27v27.48H680v4.09H668.48v11.65l7.14.33c.45-1.63.75-2.68,1.1-3.93h11.42c-.07,1.09-.14,2.18-.25,3.79H676.66c-.41,1.57-.69,2.62-1.08,4.13H664.53c-.4,1.59-.69,2.72-1,3.77l-3.16.55c.07,1.11.14,2.06.2,3L664,184c.11,1.41.21,2.7.3,4l0-.06-3.95-.23v7.52l7.12.55c.38,1.34.66,2.31.93,3.29l3.46.77c.07,1.32.14,2.49.21,3.67l-3.81-.22c-.19-1.27-.33-2.18-.53-3.53l-7.21-.63-.9-3.06-3.13-1c-.26-1-.52-2-.81-3.09l-3.75-.87V179.74h-7.71c-.17,1.2-.31,2.19-.51,3.55H632.64c-.34,1.4-.6,2.46-1,4H620.47v7.88l7,.69,1.11,3,3.2,1V203l-3.35.52-.47,3.56,0,0-3.51.37c-.35-1.45-.61-2.51-.92-3.81l-7-.41c-.33-1.26-.62-2.39-.93-3.6L612.6,199v-10.9l3.21-.92.72-3.6h15l1.21-4h11.17V159.93l-3.68-.74V100.27l-3.59-1v-35h3.28l.82,3.55h10.92l1,3.75h3.74V44.28l-3.53-.84c-.21-1-.44-2.08-.72-3.43h-7.62V63.34h-3.84V20.58l3.55-1,.85-3.3h3.07c.13,2.29.26,4.56.4,6.94l-3.79,1V35.87h10.87c.62,1.48,1,2.5,1.67,4H672v3.65l-11.43.57V79.69H671.8c.47,1.38.79,2.34,1.27,3.73l6.69.71c.38,1.1.76,2.22,1.23,3.6h10.93c.32,1.34.58,2.39.89,3.68l10.94.85,1.15,3.26h15.66v4h11.07c.59,1.47,1,2.56,1.56,3.9h7.39c.15-2.5.29-4.87.42-7.24l3.79-1V84.29l7.73-.66c.19,1.84.31,3.1.44,4.36l-3.91-.3v7.7h23.46l1.2-4h15.52c-.17-1.48-.28-2.36-.4-3.43h-19l-1.26,3.68H752.75c0-1.29.11-2.48.16-3.67l11.58-.62c.25-1,.46-1.92.88-3.62h23.27c.46-1.78.72-2.76,1.05-4H809l1,3.5h19.31c-.13-1.37-.21-2.23-.34-3.57H813.12l.54-4.22h15.26c.53-1.63.87-2.67,1.32-4.08h14.84c.33-1.48.57-2.54.9-4h11.23c.17-1.55.29-2.64.4-3.73l0,0c2.55-1.13,7.2,2.15,8.08-3.53H854.44c-.35,1.39-.62,2.45-1,4H838.24c-.26,1.59-.43,2.66-.65,4H818.12L817,71.82H793.77c-.37,1.43-.61,2.33-.95,3.63H741.26v-4h52c-.14-1.68-.19-2.41-.28-3.47l-7.33-.69c-.39-1.36-.69-2.4-1.08-3.79h-11c-.31-1.53-.54-2.67-.77-3.75H757.27c-.13,1.32-.24,2.39-.4,4H741.28c-.3,2.91-.55,5.26-.8,7.61H733.2c-.25-1.33-.43-2.33-.64-3.44h-7.73V87.69h7.51c.35,1.42.62,2.55.92,3.8l6.88.31.92,4.46-12-.93-.76-3.26-7.51-.63V56.12l-3.6-.72c-.19-1.25-.37-2.51-.55-3.76l-.06,0h19.79c.43-1.59.7-2.57,1.12-4.13h23c.52-1.53.86-2.5,1.32-3.84h19.13c.27-2.82.5-5.28.78-8.32h23.4c.09-1.48.15-2.41.23-3.67H778.46l-1.9,3.77H753.49l-.59,3.9H733.17V27.65H697.36c-.3-1.41-.51-2.39-.82-3.9H661c-.2-2.83-.37-5.16-.57-7.94H648.85c.16-1.51.26-2.52.38-3.6l10.8-.49,1.42-3.59h18.93c.27,1,.56,2,.91,3.28h3.39V8.15l-3.33-.92c-.1-.75-.2-1.54-.42-3.23h23.59c.53-1.8.81-2.77,1.17-4h19c.06,1.19.1,2,.16,3.41h19.82l1,3.82h83.94c.29,1.21.5,2.12.85,3.56l7.15.76c.38,1.14.72,2.18,1.23,3.73h15.42c0,4.28-.39,8.1.12,11.8.4,2.93-3.1,7.86,3.6,8.35.17,1.11.34,2.25.55,3.6h6.86c.36,1.4.68,2.61,1,4l3.57.37c-.22.62-.44,1.23-.67,1.85l9.42,3.41V71.34l0,0c-.24,7.71-.51,15.41-.72,23.12-.08,2.68,0,5.37,0,8.47l3.63.73c.16,1.12.32,2.28.5,3.53L886,108v39.41h27.42v8.33l-6.91,1L904.88,160H894.11c-.33,1.39-.59,2.51-1,4.13H877.48v56.35l-3.9-.47v43.63l-4.26.52-.33,7-3,1.13c-.42,1-.85,2.13-1.31,3.26l-3.31.27c-.18,1.26-.37,2.55-.58,4h-3.42c-.08,1.4-.15,2.63-.23,4l-3.75.17c-.15,1.32-.27,2.39-.44,3.86h-7.79c-.07,1.46-.12,2.54-.17,3.77l-3.43.85c-.3.93-.61,1.89-1,3l-2.86,1.08c-.15.9-.31,1.81-.49,2.93l-7.72,1.06c-.14.95-.27,1.85-.46,3.13h-7.63c-.1,1.46-.19,2.7-.29,4.18h-3.69v4h-8c-.06,1.47-.11,2.47-.17,3.62l-4,.73v3.21l-7.87.5c-.16,1.28-.3,2.35-.47,3.68l-7.27.39c-.29,1-.59,2-1,3.51h-7.51c.18,1.46.33,2.56.51,4H773.4c-.39,1.38-.73,2.58-1.14,4H761.94c-.41.87-1,2.16-1.8,3.76l-11.75.56c-.32-1.51-.59-2.76-.86-4l-7.45-.45v-3.41l-3.63-1.16c-.18-.95-.35-1.85-.55-2.93l-3.3-1.26c-.27-.91-.54-1.8-.84-2.8l-7-.85c-.46-1.32-.81-2.35-1.18-3.44l-3-.58c-.3-1.09-.61-2.21-.94-3.39h-2.83c-.34-1.3-.68-2.61-1.07-4.08l-3.22-.81c-.35-1-.69-2-1.14-3.22l-6.86-.75-.89-3.12-3.06-.94-.85-3.44-3-.44-1.4-3.33-6.82-.53c-.32-1.22-.6-2.27-.93-3.5l-3.21-.51c-.32-.94-.68-2-1.1-3.23l-2.9-.9-.63-3.32-3.41-.64-.89-3.46-7.08-.36c.08-1.31.14-2.27.23-3.68l6.76-.33,1.38,3.78,3.06.6.43,3.05,3.17,1.18,1.24,3,3.12.75c.26,1,.54,2,.92,3.48l7,.34c.37,1,.73,2.05,1.24,3.47l3,.4,0,0c.25,1.16.51,2.31.76,3.45l3.08.89c.32,1,.66,2,1.1,3.4l6.51.35c.51,1.1,1,2.24,1.64,3.57l1.71.45,4.38,4.62,5.32,4.47s.21,1,.5,2.48l7.37.36c.25,1.12.47,2.1.7,3.08l1.71-1.64,4,4.32c-.49.54-1,1.07-1.48,1.6l2.83.53,1,3.64h3.17V252.87l-4.14-5,.75-.77,3.39,3.17V240.15L740.19,239l-.83-3.14-6.68-.53c-.38-1.23-.73-2.34-1.14-3.7H712.81c-.25,1.09-.5,2.14-.81,3.44l-7.28.66c-.34,1.17-.59,2.06-1,3.43H692.86l-1.15,3.87h-15.1l-.67-3.55-7.33-.59c-.4-1.25-.69-2.13-1-3.17l-3-.83c-.32-1-.64-2.09-1-3.3l-6.87-.9c-.41-1.07-.77-2-1.2-3.16h-3.77v23.63Zm141-.05-12.23.9.63,3.05h11c.2-1.36.4-2.68.59-4h7.74c-.17-1.3-.3-2.27-.41-3.17H793C792.92,249.1,792.85,250.1,792.78,251.1Zm86.07-129.56a46.38,46.38,0,0,0-1.09,6.55c-.14,6.34,0,12.69,0,19.1h2.91V125.5l-1.82-4,2.22,1.12V112.36c-1.83.24-3.1,1.21-3.1,2.19A46.51,46.51,0,0,0,878.85,121.54Zm-57.5,114c-.05,1-.1,1.95-.16,3.28h3.73c-.36-1.21-.61-2.05-.89-3l-2.74-.27c-.2-1.29-.4-2.59-.67-4.32h7.54c.53-1.44.94-2.54,1.31-3.53l7.18-.86c.1-1.45.17-2.51.25-3.67H840l1.35-3.54,6.81-.38,1.46-3.67,7-.49c.13-2.76.25-5.19.37-7.82h7.46V196l-2.87.17c-.2,1.29-.35,2.28-.52,3.34l-3.13.63c-.39,1.27-.75,2.47-1.12,3.68l-7.08.35c-.31,1.43-.51,2.34-.78,3.6l-7.4.36-.89,3.06-3,1.27-.79,3.23-7.35.34-.78,3.82h-7l-1.74,4H809.33c-.31,1.38-.54,2.38-.81,3.57l-7,.8c-.44,1.37-.72,2.26-1.07,3.39l-7.36.43c-.15,1.38-.26,2.38-.42,3.78H780.85c-.1,1.5-.18,2.59-.29,4H769.33c-.48,1.35-.84,2.38-1.35,3.84H748.67v7.29l3.54.64c.21,1,.39,1.92.65,3.27h15c.41-1.37.73-2.41,1.09-3.61h11c.31-1.3.57-2.43,1-4.12h11.34l.39-3.91h11.19c.52-1.38.94-2.49,1.4-3.73l6.67-.4c.48-1.29.88-2.39,1.31-3.56ZM873.17,171V67.81l-3.13.31v8H857.78v11.4L854,88c-.14,1.33-.25,2.4-.4,3.84h-7.41c-.44,1.44-.75,2.49-1.17,3.85H838c-.31,1.47-.55,2.61-.8,3.82H809.61C809.24,98,809,97,808.75,96l-3.18-.78c-.28-1.19-.53-2.25-.82-3.46H790c-.39,1.25-.77,2.43-1.29,4.09h-15.2c-.35,1.46-.59,2.44-1,4H761v39.27l3.92.83v63.53l.06,0v23.32h11.17c.25-.91.51-1.88.83-3l7.14-.75c.26-1.08.48-2,.87-3.62h11.33c.16-1.73.26-2.71.38-4h7.84c.24-1.18.41-2,.69-3.39l7-.74.56-3c4-3,10.44,2.8,13.07-4.61l6.68-.5c.39-1.35.66-2.32,1-3.53l7.09-.33c.32-1.29.56-2.27.8-3.26l2.94-.87c.34-1.12.69-2.25,1.15-3.79h7c.34-1.45.58-2.51.91-4h7.27c.28-1.46.48-2.52.69-3.58l3.2-.8c.31-3.76.6-7.32.92-11.11Zm-69.5,107.83c.4-1.17.73-2.13,1.21-3.5l7.3-.47c.31-1.3.55-2.28.77-3.21l3.27-1c.31-1.16.56-2.13.87-3.31l6.91-.5c.37-1.27.68-2.31,1-3.53l7.21-.41c.23-1.43.41-2.5.59-3.65l3.15-.21.88-3.71,7.45-.44c.14-1.4.25-2.41.35-3.37l3.79-.84c.21-1.35.36-2.33.52-3.38l6.86-.47c.47-2.53.9-4.88,1.33-7.19l3.29-1c.14-2.56.27-5,.4-7.51l3.77-.17c-.19-1.18-.34-2.14-.48-3.06h-6.47c-.23,1.26-.44,2.41-.65,3.61l-3.12.61c-.41,1.19-.8,2.3-1.23,3.52l-7.32.51c-.26,1.24-.42,2.07-.6,2.92l-2.94,1.07c.15.55.31,1.11.46,1.67l-9.12,2.91v3H813.55l-1.25,3.74h-11l-.73,3.92-7.22.5c-.38,1.24-.71,2.28-1.15,3.67H781.26c-.24,1.55-.43,2.76-.63,4.08H764.72c-.11,1.39-.21,2.56-.3,3.65H752.84c-.47-1.47-.86-2.72-1.35-4.26l-2.92,1.05v21.56l3.9,1.84c.11,2.12.23,4.47.36,7.17h11.22c.16-1.28.29-2.28.48-3.74h11.15c.48-1.43.8-2.39,1.18-3.51l11.29-.63c.27-1.22.52-2.29.85-3.76h7.34c.17-1.41.29-2.4.44-3.66Zm.16,36.1.8-4h3.2c.35-1.14.68-2.18,1.12-3.59l7.1-.54c.26-1.32.46-2.3.67-3.34l3.09-.84c.59-1.09,1.15-2.14,1.7-3.18l6.46-.92c.18-1.26.34-2.32.55-3.73H836l.66-3.52,3.91-.62v-3l3.56-.81c.45-1.39.84-2.57,1.27-3.88h6.72l.92-3.64,3.14-.33c.27-1.37.51-2.59.74-3.78l3.32-.48c.23-2.35.46-4.74.69-7l3.71-.75c-.28-1.13-.49-2-.73-2.9h-6.14l-1.32,3.11-2.69.93c-.32,1.11-.6,2.09-1,3.38l-7.82.61c.25,1.31.4,2.14.63,3.39l-4.22,1.6c-.2.76-.42,1.58-.66,2.45l-7.16.73c-.17,1.39-.31,2.45-.46,3.6l-8.5-.45c-.22-1.31-.41-2.38-.6-3.54h-2.29c-.33,1.16-.62,2.22-1,3.56l-7.25.58c-.27,1.26-.47,2.25-.68,3.24l-.88-.66-4.33,5.27h-6.18c-.29,1.38-.54,2.54-.83,3.91H789.26c-.19,1.36-.33,2.35-.49,3.48l-8,.67c-.09,1-.17,1.95-.29,3.22l-7.5.74c-.14,1.21-.25,2.2-.39,3.51H752.55c-.22-1.46-.38-2.53-.58-3.91l-3.18.28c0,8.15,0,16.07,0,24,.05,7.17,4.15,9.54,11,6.43.27-.86.54-1.75.95-3.09l11.14-.53.58-3.63h7.59v-4h7.68c.34-1.47.63-2.68,1-4h7.18c.24-1.28.48-2.49.76-4ZM744.7,100.06V223l7,.35c.49,1.36.89,2.47,1.27,3.54h7.5V140.1l-3.72-.83V100.06ZM684,99.45l-3.4.69v11.7h11.23c.47,1.55.77,2.52,1.11,3.63L696,116c.25,1.06.49,2.12.83,3.58h11c.35,1.55.6,2.69.94,4.17h10.81l1.49,4.1h11.12c.32,1.47.54,2.45.81,3.7l3.27-.29v-19l-3.28-.94c-.3-1.14-.6-2.27-.89-3.34l-7.22-.48c-.33-1.37-.57-2.43-.9-3.8H709l-1.08-3.78H697.06c-.43-1.58-.71-2.64-1-3.88H685Zm76.71-47.89H737.49c-.36,1.63-.62,2.77-.89,4l-8.06.35c.23,2.93.4,5.12.57,7.41h7.36c.3-1.31.52-2.29.89-3.9h19.51c.2-1.57.32-2.48.52-4h19.38c.38-1.59.62-2.57,1-3.93h23.49c.28-1.4.49-2.44.84-4.21h19.17c.22-1.56.35-2.39.56-3.84H841.2c-.14-.85-.27-1.7-.41-2.56l12.69-2.5V35.77h-19c-.3,1.24-.54,2.21-.9,3.72H810.39c-.59,1.55-1,2.57-1.41,3.67H798l-1.12-3.4h-11c-.21,2.52-.41,4.88-.66,7.83H761.72C761.3,49.19,761,50.17,760.66,51.56Zm-51.95,80.29v23.74h11.83v3.49l3.5,1c.24,1,.49,2.1.74,3.15l3.18.62c.36,1.18.68,2.22,1,3.45l6.81.68c.39,1.13.7,2,1.09,3.12h3.31v-6.23l-2.05-1.47,2.08-1.42V144.16l-3.51-.85c-.27-1.15-.51-2.21-.78-3.37l-7.31-.5c-.15-1.42-.25-2.4-.36-3.44l-11.14-.63-1.3-3.52ZM733.66,20l3.31-.62c.29-1.25.54-2.31.91-3.85H749V11.72l-7.07-.35c-.37-1.36-.65-2.42-1-3.77H725.45c-.31,1.36-.56,2.42-.85,3.71h-7.13V10l5.07-6.22h-9.08c-.41,1.39-.73,2.43-1.2,4H697.34l-1.16,4H685.24c-.6,1.59-1,2.62-1.42,3.79l-7,.56c.07,1.37.11,2.39.16,3.49h27.58l1.08-3.46,6.92-.64c.37-1.35.64-2.32,1-3.46h2.91v3.18l-3.18.75v3.58l7.07.41,1,3.49h11.46ZM854.5,55.49l11.32-.57c-.42-1.44-.64-2.22-.84-2.9l-3.12-.85c-.16-2.42-.31-4.77-.46-7.14H842.28c-.21,1.37-.35,2.29-.55,3.66H822.24c-.34,1.52-.58,2.57-.92,4.08H801.69c.17,1.42.28,2.29.44,3.63h11.15c.32,1.54.54,2.6.81,3.84l7.2.37c.35,1.18.65,2.15,1,3.38H837c.47-1.54.74-2.41,1.14-3.71h14.8C853.48,57.93,853.87,57,854.5,55.49ZM773.7,27.23h31.54c.3-1.37.51-2.35.76-3.51l7.34-.85c.15-1,.29-1.86.46-3l-8.19-.55c.15-1.36.28-2.49.43-3.81l7.53-.4c-.06-1.3-.11-2.37-.16-3.33H773.7Zm-36.35,7.71c6.29,2.24,15.36.42,16.69-3.55H772.8c.24-1.34.41-2.28.61-3.36l-4.4-.79V15.6l-3.24-.38c-.27-1.12-.51-2.11-.81-3.37h-7.25c-.37,1.39-.6,2.28-.87,3.29l-7.19.65c-.37,1.24-.68,2.28-1,3.51l-7.23.44c-.25,1.4-.45,2.47-.64,3.56l-3.39.62ZM828.49,215l.92-3.65h6.89c.33-1.22.61-2.27.93-3.43l3.47-1.33c-.21-.91-.4-1.7-.61-2.62h-6.74v3.57l-8,.38c-.31,1.35-.55,2.42-.88,3.91H813.79c-.28,1.59-.48,2.74-.73,4.18h-7.84c-.11,1.4-.19,2.4-.28,3.71h-7.69c-.35,1.35-.63,2.41-1,3.88H784.92c-.14,1.52-.24,2.58-.35,3.83l-7.44.38c-.3,1.43-.54,2.57-.83,3.93H761.09l-.94,3.6-3.52.28c-.34-1.5-.61-2.73-1-4.3l-7.31.56c.08,1.35.13,2.16.18,3l3.72.49.9,3.68h14.54c.28-1.17.58-2.36.92-3.74h11.3c.38-1.31.72-2.51,1.21-4.19h11.63v-3.53l7.49-.52c.27-1.34.48-2.33.73-3.59l7.27-.34c.26-1.47.46-2.55.71-4H820.3c.22-1.3.39-2.3.62-3.68ZM842.74,20c-.58,1.48-.91,2.34-1.49,3.83H818.39c-.31,1.5-.49,2.32-.8,3.81h-11.8l.26,3.62,3.29.38c.3,1.23.56,2.29.85,3.46h19.28c.3-1.56.51-2.71.75-3.93h19.23V19.48ZM809.65,95.14h27c.51-1.42.85-2.38,1.27-3.52l7.18-.45c.13-1.29.24-2.36.35-3.46l3.25-.71,1.06-3.08,3.47-1c-.08-1.09-.15-1.95-.22-2.83H842.38c-.41,1.38-.67,2.27-1.08,3.63H830.19c-.41,1.46-.68,2.43-1.13,4H809.65Zm-93.12,92.51v15.46H724v-7L720.14,195V179.91h-7.22c-.35,1.23-.66,2.36-1,3.48l-3.34.64v3.17Zm36,115H771.7c.48-1.14.93-2.22,1.5-3.56h6.7c.19-1.4.34-2.47.53-3.83l8-.48-.94-3H777.09c-.29,1.45-.51,2.59-.73,3.74H765.12c-.18,1.22-.35,2.37-.57,3.88H753C752.9,300.28,752.76,301.12,752.53,302.6ZM704.46,207l3.1.28c.46-1.37.83-2.48,1.18-3.5l3.3-1V191.88l-3.29-.74c-.32-1.12-.62-2.17-1-3.33h-3.33ZM877.77,159h14.69c.28-1.21.53-2.27.84-3.59a24.29,24.29,0,0,0,4.84-.08c1.12-.23,2.09-1.2,3.13-1.84l-.67-1.23H881.52v3.4l-3.35.44C878.05,157,878,157.69,877.77,159Zm-9.24,60.83c4-.86,6.1-14.2,3.25-19.89l-2,.43c-.27,3.88-.51,7.5-.74,10.9l-3.58,1.37V227h3.06Zm-200-131.79v27.55l3.64-.22V87.89ZM804.67,283.5l-7.43.46-.45,3.7h-7.36l-.65,2.7h4.84l.66.36h5.66l1.11-3.33,7.35-.87v-3.2l4-.67c-.14-1.1-.24-1.89-.35-2.7h-6.94C805,281.23,804.84,282.23,804.67,283.5Zm51.9-84.33v-7.45l-3.16.55c-.07,1.2-.12,2.12-.18,3.22l-5.07.51-2.42,4.14h-4.5v3h7.36c.2-1.38.35-2.37.52-3.56ZM736,227.27l-3.28.43c-.13,1-.25,1.83-.4,3l7.3.87,1.56,3.84,2.74-.27v-7.46l-3.44-.44c-.3-1.18-.56-2.22-.84-3.31H737C736.65,225.13,736.32,226.18,736,227.27Zm53.58-143.4v3h19.72c-.26-1.39-.4-2.16-.56-3Zm.12-20.73H809.1c-.08-1.45-.13-2.48-.18-3.32H789.83C789.78,61,789.73,61.89,789.67,63.14Zm-113.2,175.7h15.92c-.42-1.49-.67-2.4-.89-3.19H676C676.22,237,676.34,237.93,676.47,238.84ZM833.81,15.72H818.42c-.21,1.18-.37,2.12-.59,3.39H833C833.21,18.16,833.47,17.1,833.81,15.72Zm-9.47,259.22c-.14-1.05-.25-1.91-.39-2.95h-6.8l-.84,3-3,1.37c.08.86.15,1.66.23,2.61h6.67c.29-1.24.53-2.3.8-3.47Zm20.9-8H852c.31-1.25.56-2.29.81-3.26l3.39-.63c0-1,.08-1.83.14-3h-6.79c-.25,1.3-.44,2.29-.65,3.35l-3.37.39C845.46,264.72,845.37,265.58,845.24,266.93Zm-4.93,4.56,4.2-.61-.82-2.69-6.24-.3c-.23,1.48-.4,2.53-.57,3.6l-3.58.47c.18,1.21.32,2.17.44,3h6.57Zm-136.5-39.81H692.42c.09,1.29.16,2.27.25,3.46H704C704,234,703.89,233,703.81,231.68ZM780,256.32H768.62l-.14,2.28,11.56.9Zm60.9-180.23H829.85c.06,1.27.11,2.13.16,3.17h11.43C841.24,78,841.09,77.06,840.94,76.09Zm32.35-24-2.4-.45c-.34,3.58-.68,7.16-1,11.1l3.45.27ZM672.67,12h-7.83v3.57h7.56C672.49,14.36,672.56,13.46,672.67,12Zm67.5,175.73h-7.49c.08,1.29.14,2.31.21,3.42h7.28Zm24,72.13h-7.45v3.05l6.91.45C763.86,262.13,764,261.11,764.2,259.87Zm49-16.83h7.29c.15-1.14.28-2.12.4-3.07h-7.69Zm-108.32-12h6.88v-3.69l-7.65.56C704.45,229.34,704.62,230.05,704.87,231.07Zm26.49-11.2h-7l.4,3.24h7.39C731.84,221.81,731.59,220.81,731.36,219.87ZM716.45,227h7.93c-.28-1.29-.47-2.21-.73-3.4l-6.93.38C716.62,225.06,716.55,225.86,716.45,227Zm115.87,40.78-7.27.37-.18,2.31,7.81,1.12C832.51,269.76,832.44,269,832.32,267.73ZM853.25,75.14V72h-7.19v3.11Zm-11.87,148.8c-.1,1-.18,1.72-.31,2.91h7.63c-.11-1.17-.19-1.95-.29-2.91Zm-1.23,12.13h-6.76v3h7.55C840.58,237.72,840.34,236.82,840.15,236.07ZM856.71,252H849c.19,1.15.34,2.13.51,3.19h6.31Zm-51.58-4.31,7.51-1.77c-.13-.63-.27-1.25-.41-1.88h-7.1Zm32,15.13h7.35l-.38-2.68h-7Zm32.57-78.71v7l3.18-.24-.56-6.86ZM676.61,91.77v3.58h3.68c0-1.15-.09-2-.14-3.15ZM624.3,203.37l3.45-.24v-3.6l-3.45.28Zm80.39-79.6v3.63h3.37V124Zm27.63,8.17-3.54.21v3.32l3.54-.21ZM832.38,274.49,827,278.81h5.37ZM805.8,38.94l3.49.22c.07-1.26.12-2.2.17-3.29H806Zm-77,156.45,3.3-.39c-.07-1.18-.13-2.07-.19-3.14h-3.11ZM833,263.78c.05,1.23.09,2.12.14,3.18h3.2v-3ZM716.55,128.13c.18,1.27.31,2.15.47,3.24l3.16-.21c-.1-1.35-.18-2.39-.29-3.75Zm97-59.49,5.47-4.56L814,63.72C813.9,64.82,813.82,65.73,813.59,68.64ZM835.77,231h5c-.12-1-.23-1.94-.5-4.16Zm34-51.77h3.42c-.18-1.16-.33-2.07-.5-3.18l-3.09-.15C869.69,177.12,869.73,178,869.8,179.23Zm-16.93,45.1c-.23-2.63-.3-3.5-.41-4.73l-4.77.72Zm-8.18,34.87L848,259c.12-1.07.21-1.92.34-3.12l-3.18.14C845,257.05,844.91,257.85,844.69,259.2Zm15.56-.05v-3.48l-3.1.33c.12,1.23.21,2.11.31,3.15Zm-2.59-39.75,3.19-.26-.47-3.23-3.36.49C857.26,217.49,857.43,218.33,857.66,219.4Zm-8.16,11.95,3.11-.21c-.05-1.13-.09-2-.15-3.2l-3,.31ZM749,299.08l3.23-.31-.47-3.29-3.06.5C748.84,297.12,748.92,298,749,299.08Zm-8.66-80.89.19-1.46-4.49-1.16c.57,1.85.81,2.65,1.16,3.8Zm92.25,21.94h-3.33v3l3.1-.2C832.47,241.94,832.52,241.29,832.62,240.13Zm8.54-4.71,3.37-.54,1.52-1.84-2.64-2.54L841.57,232C841.46,232.92,841.34,233.86,841.16,235.42ZM864.62,188l-4.52.25,4.52,4.18Zm1,7.11,3,.26v-3.44l-3,.36Zm.66,65.22,3.53-4.42-4.9.24Zm-37.17-28.69c.19,1.47,0,2.54.48,3.06s1.54.49,2.71.79c.06-1.28.09-2.07.13-3ZM862.27,71.07l2.88.19V68h-2.88Zm-.54,180.19a9.51,9.51,0,0,0-.33,2.9A1.79,1.79,0,0,0,863,255c.7-.23,1.23-1,2.09-1.73Zm5.55-4.84c-1.11,2.24-1.53,3.1-2.24,4.55l3.34-.18C868.11,249.71,867.92,249,867.28,246.42Zm-2.07,1.34c-1.2-2.15-1.66-3-2.7-4.86-.58,1.79-1.2,2.85-1,3.15C862.08,246.64,863.07,246.82,865.21,247.76Zm-19.6-50.24.43,0v-1.4h-.51C845.56,196.58,845.59,197.05,845.61,197.52Z"/><path class="cls-1" d="M245.67,271.36h-4c-.05-.65-.09-1.38-.14-2.11l.05,0-1.72-2.79-3.21,4.74h-2.87c-.09-1.17-.17-2.22-.25-3.43l3.62-.59.53-3.39-3.79-.63c-.21-1.15-.41-2.29-.65-3.61h-3.06c-.35,1.11-.7,2.24-1.1,3.49l-2.87.85c-.09.93-.2,2-.32,3.21l5.26.65-4.89,4.75c-.57-2.61-.8-3.67-1.1-5l-3,.45c-.35,1.07-.64,1.95-1,3.08l-3.15.27c-.1-1.16-.18-2.05-.29-3.17l3.85-1.36c-.05-.87-.12-1.88-.18-2.91L218,263.2v-3.42l3.36-.18c.2,1.18.35,2.1.56,3.32l3.14.3.79-3.05,2.61-1.09c.3-.75.68-1.67,1.19-2.93l-3.88-.85c-.19-1-.39-2.06-.63-3.35l-2.65-.72c-.45,1.42-.82,2.6-1.31,4.12l-3.29.26c-.13-1.39-.24-2.51-.35-3.66l3.54-1.2v-2.83l-3.65-.76v-7.25l-7.52-.42L209,236H206c-.24,1.06-.42,1.88-.7,3.1l-3.76.72v-8h7.83c.29,1.16.57,2.22.91,3.56l6.78.52.74,3.55h7.5v3.78l-3.27,1v3l2.85.17c.48-1.26.86-2.29,1.36-3.59H237c.26,1.08.51,2.14.86,3.63h10.71c.72,1.6,1.23,2.76,1.83,4.1h18.91c.09,1.27.17,2.3.26,3.48l-3.94.79c.09.88-.13,2.05.33,2.49.67.64,1.85.75,2.94,1.13l1-3.85h27.11c.3,1.24.54,2.22.87,3.52h90.21c.53-1.27,1-2.36,1.62-3.89h46.68l1-3.85h26.86c.41-1.43.69-2.4,1.11-3.83h18.68c.35-1.48.6-2.53,1-4.23h15c.34-1.54.54-2.45.87-3.91h11.13v-7.64l-3.43-1.29V219.81l-4.06-1.13V203.81l-3.61-.89V192l2.76-.3c.4,1.24.74,2.28,1.26,3.87h14.62c.46,1.5.76,2.46,1.18,3.8h14.85c.42,1.41.74,2.45,1.18,3.9h14.88c.35,1.38.6,2.35,1,4.05h15.06c.39,1.61.6,2.51.93,3.88h15.05c.39,1.51.67,2.56,1.06,4.06h10.4l1.44,4h14.92V231l-3,.62c-.31,1.1-.58,2.08-.87,3.16l-3.08.7c-.32,1.09-.62,2.15-1,3.31l-3.18.67c-.26,1-.53,2.09-.86,3.35l-3.31.68c-.25,1-.51,1.95-.79,3.06l-3.18,1.25c-.14,2.29-.28,4.56-.42,6.87l-3.42.72c-.25,1-.49,2-.38,1.53l-5.32,6-2.25.38c-.21,1.11-.42,2.17-.64,3.33l-3.23.71-.94,3.44-3.11.43c-.24,1.08-.5,2.19-.77,3.4l-3.29.62c-.17,2.36-.34,4.72-.51,7.14l-3.45,1c-.24,1-.48,2-.75,3.05l-3.21.78c-.17,1-.35,2.11-.57,3.42l-3.41.54c-.22,1.05-.46,2.19-.72,3.46l-3.26.44c-.26,1.14-.53,2.27-.81,3.45l-2.91.64c-.24,1.11-.48,2.17-.74,3.34l-3.4.77c-.2,2.24-.4,4.59-.61,7l-3.3.83c-.29,1.15-.55,2.13-.87,3.39h-7.42c-.19-3.67-.4-7.37-.6-11.1l-3.55-.95v-15l-3.91-.88V275.42H512.86c-.13,1.16-.25,2.15-.41,3.57H497.28c-.33,1.39-.57,2.38-.89,3.74H477.07c-.2,1.43-.36,2.58-.61,4.29H457c-.13,1.57-.22,2.57-.34,3.91h-31l-1.29,4H281.82c-.2-1-.4-2-.67-3.43H257.91l-.82-4H241.7c-.23-1.37-.4-2.35-.66-3.82H226c-.4-1.55-.67-2.61-1.05-4.1H214l-1-3.95h-7.47l-.34-3.62-7.28-.76-1-3.35-7.14-.38-.75-3.59-3.5-.42-.6-3.76h-7.45c-.11-1.72-.19-3.13-.28-4.54l-.06.05H185L186,252l3.32-.2.21,3.45-1.83-1.51-3.43,3.42,1.87,2,2.91.55.76,3.24,3.07.51,1-3.71h3.94c-1.32,6.42,1,9.38,7.53,7.49.28,1.51.47,2.51.7,3.77l2.83.2c.51-1.16,1-2.16,1.54-3.47l2.84-.28c.31,2.67.6,5.09.91,7.74h15.32c.23,1.34.41,2.4.64,3.76l3.13-.16c.14-1.21.24-2.12.38-3.34l3.95-.26v3.68l3.5.2.74-3.44,3.42-.75c.15-1.22.28-2.38.42-3.55l3-.45c.69-1.86,1.21-3.26,1.72-4.66l-.05,0,3.1,1.44v-4.06l3.93-.68c-.13-1.17-.23-2.13-.35-3.2h-2.81c-.25,1.35-.48,2.64-.72,3.93h-4.18c-.09-1.69-.14-2.66-.2-3.85l-3.46-.32c0-1.39,0-2.79,0-4.18l4.15-.52-.71-2.91H246c-.11,1.3-.2,2.39-.29,3.48H242l-1.21-4.59-5.15,4.65-1.68.33v3.4l3.16.59c.28,1.08.53,2,.87,3.33l3.5-.16c.22-1.26.37-2.16.6-3.48h3.59v3.91l-3.88.73c.11,1.08.2,2,.29,2.81l3.41,1C245.55,269,245.61,270.18,245.67,271.36Zm26.78,4-2.27.14v3.9l3.89-1.66c-.81-1.16-1.23-1.79-1.66-2.4l1.34-.31,3.3-.33v-3.16l-3.46-.22c-.11-1.16-.21-2.32-.34-3.79l-3.27.19c-.19,1.44-.33,2.53-.47,3.61l-3.86.36c.32,1.38.54,2.36.83,3.64l3-1v-3h4.18l.15,3.78Zm8.9,2.2V277l.66-1.42,2.84-1,.73-3h-4c.2,1.56.35,2.8.51,4h-4.17v4.56Zm-23.84-5.67c.31,1,.61,2.08,1,3.38l3-.64c-.12-1.16-.22-2.05-.36-3.3l-3.65.62v-4.33l-1.59-.63-2.44,3.48Zm55.94,7.28v-3.46l-3.52-.29v3.7h3.57c.12,1.22.23,2.44.41,4.37,1.53-.69,2.74-.88,3.26-1.58s-.05-1.73-.11-2.56Zm7.84,4.05,4.1-.78c-.13-1.13-.24-2-.37-3h-3.13c-.2,1.4-.37,2.64-.55,3.87l-3.65.22v3.93l-4.44,1.25.58,2,3.36.18c.19-1.42.32-2.43.45-3.44l3.65-1Zm-19.69-16-.35-3.52h-3.33v3.46h3.73l.18,3.83h3.38c.1-1.18.18-2.18.28-3.34Zm-72.48-15.26c.3,1,.61,2.07,1,3.36l2.86-.22c.45-1.35.83-2.45,1.15-3.4l3.55-1c-.28-1-.47-2.53-.74-2.54-3.58-.16-7.16-.1-11-.1,0,1.05.1,2,.15,2.93Zm12.36,30.86h12l-.22-3.19-3.51-.46c-.26-1.18-.49-2.24-.77-3.54l-2.77.2c-.38,1.31-.68,2.37-1,3.43l-2.92.75C242,280.74,241.84,281.46,241.48,282.79Zm55.73-7.42h-3c-.39,1.24-.72,2.29-1,3.22l-3.31,1.46c.06.95.11,1.76.18,2.92l3-.34c.29-1.14.51-2,.74-2.87l3.47-1.27Zm32.81,0,3-.82v-3H330l-.8,3.09-3.45,1.17.38,3.16,2.52-.18Zm35-4.47-3.66.34.39,3.66,3.43-.42C365.12,273.31,365.08,272.34,365,270.94Zm-3.47-4.2H365v-3.36h-3.64C361.44,264.57,361.48,265.53,361.54,266.74Zm5.76,23.35-4.36-3-2.56,4.09Zm61.36-15.36V271l-3.77.3c.27,1.4.44,2.33.64,3.39Zm-103.58,16v-3.61l-3.26.18c-.09,1.19-.18,2.2-.28,3.43Zm52.44-16.2H381v-3.52l-3.43.4ZM453,266.93c-.33-1.73-.52-2.77-.75-3.95l-3.18.42v3.28Zm-67.48,23.95,3.57-.54c-.13-1.25-.23-2.2-.34-3.32l-3.23.17Zm-44.15-19.54-3.6.22-.16,3.35,3.61-.37C341.27,273.45,341.31,272.63,341.37,271.34Zm-51.8,15.49c-.29-1.5-.48-2.49-.7-3.65l-3,.33V287Zm159.55-4.27h3.39v-3.35h-3.39Zm-63.8-19.07c-.08,1.22-.15,2.12-.22,3.27l4,.21-.28-3.48Zm111.31,3.06h3.66v-3.26H497C496.86,264.39,496.76,265.33,496.63,266.55ZM337.47,290.9l3.91-.34c-.16-1.32-.28-2.32-.44-3.63l-3.27.53Zm43.68,0c-.1-1.59-.17-2.68-.26-4.1l-3.3.77v2.85Zm-8-.5c-.19-1.35-.32-2.29-.49-3.44l-3.6.28c.35,1.36.6,2.35.9,3.53Zm-31.8-23.31c-.14-1.57-.24-2.66-.37-4.12l-3.22.9v3Zm-52.07.45H286v3.55l3.48-.22C289.39,269.64,289.34,268.77,289.28,267.54Zm16.81,7.54,3.6-.36c-.26-1.32-.46-2.31-.67-3.35l-3.58-.17C305.67,272.59,305.86,273.68,306.09,275.08Zm-24-12c-.1,1.46-.18,2.56-.26,3.81h3.37v-3.25Zm31.68,4.14,3.81-.64c-.28-1.19-.48-2.05-.71-3l-3.1-.32Zm-24.67,11.53,1.71-2L288,273.84l-2.08,1.85v3.09Zm104.42,11.83H397c-.11-1.34-.21-2.41-.32-3.75l-3.07.56ZM405,263.49h-3.58v3.13h3.4C404.9,265.61,405,264.74,405,263.49Zm36.16-8.14c.07,1.32.13,2.34.21,3.62l3.5-.52c-.09-1.14-.15-2-.23-3.1ZM261.5,256l-3.5-.49c-.1,1.33-.17,2.33-.28,3.71l3.6-.19C261.39,257.92,261.43,257.17,261.5,256Zm148,18.66h3.29c-.06-1.29-.11-2.31-.18-3.59l-3.11.17Zm-111.93-3c.16,1.34.26,2.15.39,3.24l3.28-.19c.07-1.16.12-2,.19-3.28Zm96.26,3.48,3.38-.55c-.25-1.12-.17-2.37-.73-2.81s-1.89-.36-3.26-.55C393.49,272.78,393.64,273.75,393.85,275.07Zm-54,8.39,1.3-.9v-3l-4.82-.35ZM250,255.85v3.23h3.26l.22-3.64Zm218.42,27c.08-1.39.14-2.36.21-3.66l-3.56.19v3.18Zm-3.65-16.1h3.59v-3.58l-3.31.26C464.9,264.52,464.83,265.41,464.72,266.71ZM401.39,287v3.44l3.69.2c-.23-1.37-.39-2.32-.59-3.48Zm-47.48-23.92c-.12,1.48-.2,2.52-.31,3.93l3.37-.34v-3.21Zm15.46.54c.1,1.16.18,2.11.29,3.35l3.34-.38-.18-3.49Zm-71.65,16.15c.12,1.16.22,2.1.35,3.4l3.54-.8c-.15-1.18-.27-2.05-.42-3.16ZM302,287l3.09-.21.49-3.61-3.58.19Zm7.45-23.9-3.51.46V267l3.05-.14C309.1,265.62,309.23,264.59,309.41,263.07Zm-39.59,24.35,3.78-.92-.43-3.16-3.07.27C270,284.83,269.94,285.8,269.82,287.42Zm-9.47-25.33-3.55,4.7h4.95Zm17.65.79,2.94.16.69-3.55-3.63.21Zm47.19.71H321.5c.18,1.24.32,2.25.49,3.45l3.2-.17Zm20,2.77,1.17,1.07,4.36-3.85h-5Zm-47.82-3.49c-.08-1.2-.13-2-.2-3.06l-3.68-.46c.16,1.45.28,2.47.42,3.69Zm123.31,4v-3.7l-3.37.2v3.23ZM309.45,287.23l-3.29.2c-.17,1.2-.3,2.07-.48,3.22L309,291Zm15.82-12.55-.17-3.33-3.27.15c.07,1.31.11,2.33.18,3.63Zm-60,8.9h-3.39c.12,1.22.21,2.22.32,3.53l3.07-.48Zm120.11-9H389l-.25-3.14h-3.06C385.55,272.54,385.46,273.42,385.33,274.6Zm48-7.59,3.44-.63c-.13-1.24-.22-2.11-.33-3.11h-3.11Zm-103.69-3.45v3.21h3.5c-.11-1.25-.2-2.26-.31-3.47Zm-50.38,16.18-5.09-.42c-.07,1.44-.12,2.46-.23,5C275.94,282.58,277,281.71,279.28,279.74ZM285.82,263l3.66-.24c-.14-1.24-.24-2.11-.38-3.33l-3.46.46C285.7,261,285.75,261.7,285.82,263Zm83.81,11.66h3.23v-3.29l-3.6.21Zm-68.59,12-4.3,1.75,4.91,3.35C301.36,289.32,301.23,288.29,301,286.66Zm116.15-3.72,3.46-.44v-3.1h-3.26C417.33,280.52,417.27,281.47,417.19,282.94Zm-87.29,4.5-.3,3.56,3.75-.54c-.25-1.23-.42-2.09-.61-3Zm27.66-5.05c-.42-1.4-.67-2.23-.92-3h-2.93v3.36Zm-72.44,4.67-3.27.52c.1,1.22.17,2.17.27,3.36l3.19-.28C285.24,289.44,285.19,288.49,285.12,287.06Zm72.43,3.47c-.35-1.4-.6-2.37-.89-3.49l-3.09.35c.11,1.21.2,2.22.3,3.4Zm-11.71.08h3.36c-.06-1.24-.11-2.19-.17-3.49l-3.19.48ZM262,263.26l3.29-.67c0-1.07-.08-1.88-.13-2.9H262Zm71.29,18.92-.48-2.91h-2.85c-.07,1.23-.15,2.36-.25,4Zm-23.94-2.58-3.12-.46-.75,3.38h4C309.43,281.47,309.39,280.72,309.33,279.6ZM269.5,267.13c-.22-1.57-.35-2.47-.51-3.61l-3.15.24-.21,2.89Zm145.07,24-5-5.67v5ZM293.4,271.54l-3.43.15V275l3.17-.15C293.22,273.72,293.29,272.85,293.4,271.54Zm-8.31,11.27v-3.36l-3.77.69c.43,1.26.69,2,1,2.92Zm8,7.85v-3.28l-3.05.27v3Zm-23.78-11.23-2.94.19c-.22,1.07-.41,2.05-.7,3.46l3.64-.34Zm80.27-7.25-1-1.07-3.59,1.22,1.91,3.58C348.05,274.27,348.8,273.22,349.56,272.18ZM261.07,283v-3.92l-3.34.84c.09,1,.17,1.8.27,2.79Zm-.62-11.7,5.14-.66-.91-4.76C263,268,262.23,269,260.45,271.31Zm13.05-4.45h3.25c.24-1.05.45-2,.73-3.17l-3.15-.25C274.05,264.57,273.84,265.45,273.5,266.86Zm16.48.19,3.32-.62-.17-3.31-3.15.52Zm-8.8,16.57H277.9c.08,1.13.14,2,.21,3.05h3.07Zm-26.37-12.34-4.71.43v4.51Zm178.39,7.79c.13,1.4.22,2.41.34,3.75l3-.43v-3Zm-44.56,3.69c.14-1.26.25-2.3.4-3.69l-3.4.24v3.14Zm-18.9-.2h3.34c-.24-1.17-.15-2.29-.67-2.88s-1.59-.36-2.67-.55Zm-99.68-22.9c-.07,1.23-.13,2.1-.22,3.58,1.36-.39,2.48-.41,3.07-1s.29-1.58.43-2.6Zm46.88,15v-3.07h-3.07v3.07Zm36.83-.14,3.17.38v-3.53l-3.17.16Zm-4.4,7.82c-.24-1.26-.41-2.16-.62-3.22l-3.07.27c.16,1.2.27,2.09.42,3.27Zm-84.26-7.19-3.09.68v3l3.35-.2C265.27,277.27,265.2,276.38,265.11,275.15Zm-11.33,3.64h3.54v-3.13h-2.78C254.3,276.64,254.11,277.45,253.78,278.79Zm147.91.49v3.22h2.94v-3.37Z"/><path class="cls-1" d="M233.25,103.91l-.6,3.72-3.62.65V124H209.77l-.92,3.83H185.69c-.21,1.4-.36,2.4-.59,3.88h15.5c.31,1.39.54,2.38.91,4.05H221.1v31.67l-11.3.82-1.06,3.49H194.17L192.52,176H173.43c-.18,2.65-.34,4.9-.5,7.21l-3.3,1.18v10.87l3.32,1c.22,2.31.46,4.73.7,7.21l3.45.45c.18,2.42.36,4.75.55,7.26l3.36,1c.22.8.46,1.69.74,2.73l3.4,1.49.31,2.85,3.7.73.44,3.47,7.33.33c.43,1.32.79,2.43,1.15,3.57l3.16.46v3.65l-7.4.37c-.35-1.34-.66-2.55-1-3.81l-3.15-.69c-.28-1.07-.55-2.13-.85-3.31l-3.33-.44c-.25-1.08-.51-2.22-.82-3.55l-3.16-.44c-.2-1.12-.4-2.26-.61-3.46l-3.21-.46-.94-3.43-3.37-.74c-.23-1-.47-2-.72-3.12l-3.66-.94V196.32l-3.7-.66v-11l3.47-1.37v-10.5l-3.09-.75c-.3,1.33-.53,2.38-.8,3.58l-3.38.78c-.27,1.17-.54,2.33-.82,3.52l-3.16.45-.91,3.14-3.43,1v18.56l4,1.13-.26,3.31-3.26.94v14.91l3.36.6c.17,2.4.33,4.76.52,7.35l1.75.29,3.36-5.78,2.37,2,.44,3.95-4,.46c-.13,2.66-.26,5.13-.38,7.59l0-.05h-3.64c-.31-2.63-.6-5.05-.88-7.45l-3.3-.92c-.19-2.35-.37-4.64-.57-7.12l-3.74-.75v-39h-7.72c-.18,1.08-.35,2.07-.56,3.3l-3.65.2-.66-4.09c-4.77.22-9.71.07-14.45,1-.93.18-1.11,4.37-1.73,7.11l-11.13.52-.51,3.77H92.72L92.21,200H60.42v-4.07H91.59l1.3-4.25h10.6c1.12-2.46,1.12-2.46,12.69-4.2l.54-7-8-.61-.9-3.5H92.73l-.82-4H72.19l-.69-4.11H52.4l-1-3.78H24.79c-.28,1.24-.53,2.38-.87,3.91H12.61l-.45,7.19H27.83l1.05,4H47.93c.35,1.46.59,2.44.94,3.86H64.15l.51,4.3H79.9l.41-3.68,7.78-.59.36-3.44h7.89l.16,3.44-3.25,1.23c-.33.83-.67,1.7-1.25,3.15l-11.19.74L80,192.46H63.47c.18-.47.46-1.23,1.29-3.51l-16.45-.78c-.37-1.24-.68-2.29-1-3.45H29l-.29,1.68a71.56,71.56,0,0,0,7.21,1.26c2.7.23,5.43.06,8.1.06.42,1.67.68,2.73,1,4.14H60.15l.62,4.08H44.23L43,192l-15.48,2,0-.05-1.07-1.32,1.92-4.05H12.22l-1.15-3.92H0V167L2.45,172c.7-1.48,1.16-2.48,1.8-3.84l7.22-.55.42-3.5L23,163.45l.65-3.61h20V136H59c.4-1.29.72-2.33,1.22-3.92H83.35l1-3.89,3.62-1-.49-3H56l-1-4.11H39.35V15.83H176c.27,1.48.45,2.46.77,4.19h19.67V31.29L200,32.55c.44,1.19.85,2.27,1.33,3.54h14.46L216.94,40h15l1.22,4.28H244.6V99.54l-3.1.89c-.23,1-.45,2-.79,3.54H233.2c.07-1.24.13-2.49.2-3.66l3.28-.71.82-3.17,3.19-.87V47.94H229.58c-.59-1.43-1-2.45-1.72-4.19H217.11L216.24,40H201c-.37-1.53-.61-2.52-.9-3.74l-3.3-.37v79.52l3.92,1.12v3l-3.46,1v3.14h11.35c.46-1.34.78-2.3,1.23-3.62h15.27V103.91Zm-56,36.34c-.24-2.63-.47-5.26-.71-8H165.32l-1.07,3.57H149.32L148,132.11H120.67c-.29-1.33-.51-2.4-.8-3.72H92.63c-.14,1.2-.28,2.34-.44,3.67l-3.33.25c-.2.84-.39,1.7-.64,2.78l3.67,1.15L93,140h14.8c.51,1.42.89,2.45,1.33,3.68H160.3l.87-3.45h16.12c-.18,1.24-.36,2.47-.59,4.07H161.47l-.79,3.8H108.81l-1-3.85H92.64c-.37-1.44-.63-2.5-1-3.77l-7.31-.56-.95-3.46H64.81l-1.34,4h-15v19l3.45.81.89,3.72h19L73,168H91.75l1.89,3.85h18.57l1.25,3.67,7,.44c.44,1.33.82,2.42,1.31,3.88H136c.57,1.52,1,2.62,1.48,3.92l3-.28.66-3.72h15.07c.59-1.46,1-2.47,1.41-3.5l2.83-.66,1.31-3.35,2.83-.76c.3-1.16.57-2.21.89-3.43l7.06-.5c.45-1.32.77-2.28,1.08-3.22l3.32-.89.47-3.51h10.87c.56-1.41,1-2.5,1.55-3.85H197l-.18,3.46-3.17.81-.93,3.49-7.11.46c-.43,1.27-.75,2.23-1.05,3.15l-3.08,1.28c-.11.84-.23,1.65-.39,2.82h11.44c.51-1.29,1-2.38,1.58-3.94h10.62c.4-1.5.66-2.47,1-3.76H217V140H197.6c-.32-1.42-.57-2.49-.85-3.74h-15l-1,3.29Zm-28.17-8.66h15.39c.23-1.27.39-2.18.66-3.64h15.24l1.12-4.24h10.89V23.8H172.7c-.47-1.56-.77-2.53-1.13-3.73H43.73V116H59.6l.65,3.89H87.39c.56,1.58.89,2.54,1.4,4H120.1l1.31,4.3h27C148.68,129.57,148.83,130.32,149.08,131.59ZM27.24,180.77H16.87v2.6H27.24ZM177,171.44l-.14-3.22-3.46.19v3.28Zm-173.3,5,2.78,4.47,1.38-3.78Zm25.24,10.91s-.08.12-.06.16.1.05.15.08.08-.12.07-.16S29,187.36,28.92,187.34Z"/><path class="cls-1" d="M651.74,251.19l4,.2c.2,2.62.38,4.88.55,7.15l3.51,1c.24,2.28.48,4.61.73,7l3.12,1,1,2.8,3,.9v3.35l-3.17.23c-.35-1.18-.63-2.15-1-3.25l-2.93-1.06-.9-3.08-3.29-.85c-.21-1-.43-1.95-.7-3.13l-3.88-1.11v-11.3Z"/><path class="cls-1" d="M672.64,47.53c.8-1.36,1.38-3.3,2-3.32,7.17-.21,14.35-.13,21.88-.13-.16,1.26-.27,2.2-.43,3.45Z"/><path class="cls-1" d="M716.61,51.64H697.06V48.09h19.49v3.6Z"/><path class="cls-1" d="M161.12,239.8l4-.25c.18,1.31.33,2.39.49,3.57l3.38.79c.24,1.05.46,2,.74,3.23l3.45.76.69,3.49,3.73.45c-.15,1.17-.29,2.29-.44,3.41l.06-.05-3.62,1c-.27-1.55-.48-2.78-.73-4.24l-3.61-.44c-.05-1.16-.1-2.23-.16-3.42l-3.52-.59-.58-3.25-3.6-.69c-.08-1.29-.17-2.55-.25-3.8Z"/><path class="cls-1" d="M628,207.07l3.47.36,1.21-3.79h7v3.54l-7.07.4c-.27,1-.56,2.06-.91,3.36h-3.32c-.12-1.41-.22-2.66-.32-3.92Z"/><path class="cls-1" d="M168.94,239.88c.27-1.57.47-2.69.7-4l4-.2c-.08,1.43-.15,2.57-.22,3.94Z"/><path class="cls-1" d="M169.07,224.09c.08-1.62.13-2.52.2-3.76l4-.71v3.71Z"/><path class="cls-1" d="M213.85,259.71c-.19,1.42-.31,2.33-.46,3.49l-3.68.46v-4Z"/><path class="cls-1" d="M181.13,243.49l.35,4-4.35.27c.14-1.34.25-2.46.38-3.85Z"/><path class="cls-1" d="M213.64,255.49h-3.91v-3.87h3.5C213.36,252.85,213.48,254,213.64,255.49Z"/><path class="cls-1" d="M193.29,255.69l.28-4.24,4,.62-.29,3.39Z"/><path class="cls-1" d="M193.48,247.4l.2-3.7h3.93c-.11,1.31-.2,2.45-.3,3.7Z"/><path class="cls-1" d="M181.53,231.76l-4.24-.41c.09-1.16.16-2.1.26-3.29h3.77Z"/><path class="cls-1" d="M205.44,263.28h-3.66v-3.36l3.66-.4Z"/><path class="cls-1" d="M189.31,239.41h-3.64V236h3.64Z"/><path class="cls-1" d="M197.64,235.81c-.16,1.34-.28,2.33-.43,3.55h-3.82l.73-3.55Z"/><path class="cls-1" d="M201.52,252.06l3.8-.4v3.44l-3.44.6Z"/><path class="cls-1" d="M213.44,243.23c-.08,1.63-.13,2.67-.19,4l-3.38.16-.32-2.78Z"/><path class="cls-1" d="M110.93,183.6l3.6,3.1c-2.26-.12-3.26.11-3.81-.29s-.57-1.42-.83-2.17Z"/><path class="cls-1" d="M100.15,185.77,97.62,184l.3-.56,2.78,1.37Z"/><path class="cls-1" d="M27.55,194c.35.44.69.88.08.1.26.93.11.4,0-.14Z"/><path class="cls-1" d="M699.89,295l0,0Z"/><path class="cls-1" d="M878.75,71.34l0,0Z"/><path class="cls-1" d="M857.61,63.5l0,0Z"/><path class="cls-1" d="M664.26,187.94l7.08-.63,1.19,3.75,3.28.83.73,3.21,7.38.66v4.1l.05-.05-7.21-.75c-.39-1.15-.77-2.26-1.16-3.42l-3.18-.42c-.3-1.12-.59-2.18-1-3.53l-7.41-.33.26-3.48Z"/><path class="cls-1" d="M683.92,199.86h12.17c-.1,1.06-.2,2-.33,3.38H684.37c-.15-1.27-.27-2.35-.4-3.43Z"/><path class="cls-1" d="M250.35,266.19l-.06,0Z"/><path class="cls-1" d="M281.4,277v0Z"/><path class="cls-1" d="M144.3,27.89v92H108.66l-.85-3.44H72.75l-1.69-2.2-3.33.63.41-2.59H51.44V27.89ZM60,103.84h27.5c.44,1.46.74,2.42,1.18,3.87H116c.38,1.52.63,2.5,1,3.78h14.88V36.15H59.81V64.47H60Z"/><path class="cls-1" d="M88.63,152.16H112.4l.42,3.49h39.57c.31-1.2.54-2.1,1-3.73h19.08c.45-1.61.7-2.5,1.13-4h14.84c.47-1.54.77-2.51,1.15-3.78h19.51l-.33,3.8H193.77l-1,3.91H173.85L172.41,156h-20c.83,1.82,1.28,2.79,1.83,4H112.41c-.07-1.09-.14-2.07-.23-3.54h-24l.47-4.35Z"/><path class="cls-1" d="M88.68,152.1H64.36l-.93-3.37-11.37-.66v-4.15H67.89l.82,3.71c5,0,9.82-.43,14.53.21,2,.26,3.61,2.81,5.39,4.32Z"/><path class="cls-1" d="M201.3,115.67v-3.85l7.3.7v3.15Z"/></g></g></svg>